<svg id="Layer_1" enable-background="new 0 0 512 512" height="512" viewBox="0 0 512 512" width="512" xmlns="http://www.w3.org/2000/svg"><g><g><g><path d="m7.9 256c0-137 111.1-248.1 248.1-248.1s248.1 111.1 248.1 248.1-111.1 248.1-248.1 248.1-248.1-111.1-248.1-248.1z" fill="#f3f2f2"/></g></g><g><g><g><path clip-rule="evenodd" d="m209.9 294.3c-16.5 12.2-40.4 18.7-61 18.7-28.9 0-54.8-10.7-74.5-28.4-1.5-1.4-.2-3.3 1.7-2.2 21.2 12.3 47.4 19.8 74.5 19.8 18.3 0 38.4-3.8 56.9-11.6 2.8-1.3 5.1 1.7 2.4 3.7z" fill="#f7981d" fill-rule="evenodd"/></g><g><path clip-rule="evenodd" d="m216.8 286.5c-2.1-2.7-13.9-1.3-19.3-.7-1.6.2-1.9-1.2-.4-2.2 9.4-6.6 24.9-4.7 26.7-2.5s-.5 17.7-9.3 25.1c-1.4 1.1-2.7.5-2-1 1.9-4.9 6.4-16 4.3-18.7z" fill="#f7981d" fill-rule="evenodd"/></g></g><g><g><path clip-rule="evenodd" d="m197.9 236.8v-6.4c0-1 .7-1.6 1.6-1.6h28.9c.9 0 1.7.7 1.7 1.6v5.5c0 .9-.8 2.1-2.2 4.1l-15 21.4c5.6-.1 11.4.7 16.5 3.5 1.1.6 1.4 1.6 1.5 2.5v6.9c0 .9-1 2-2.1 1.5-8.9-4.7-20.7-5.2-30.5.1-1 .5-2.1-.5-2.1-1.5v-6.5c0-1 0-2.8 1.1-4.4l17.3-24.9h-15.1c-.9-.2-1.6-.9-1.6-1.8z" fill-rule="evenodd"/></g><g><path clip-rule="evenodd" d="m92.6 277h-8.8c-.8-.1-1.5-.7-1.6-1.5v-45.1c0-.9.8-1.6 1.7-1.6h8.2c.9 0 1.5.7 1.6 1.5v5.9h.2c2.1-5.7 6.2-8.3 11.6-8.3 5.5 0 8.9 2.7 11.4 8.3 2.1-5.7 7-8.3 12.1-8.3 3.7 0 7.7 1.5 10.2 4.9 2.8 3.8 2.2 9.3 2.2 14.1v28.5c0 .9-.8 1.6-1.7 1.6h-8.8c-.9-.1-1.6-.8-1.6-1.6v-23.9c0-1.9.2-6.6-.3-8.5-.7-3-2.6-3.9-5.2-3.9-2.1 0-4.3 1.4-5.2 3.7s-.8 6.1-.8 8.6v23.9c0 .9-.8 1.6-1.7 1.6h-8.8c-.9-.1-1.6-.8-1.6-1.6v-23.9c0-5 .8-12.4-5.4-12.4-6.3 0-6.1 7.2-6.1 12.4v23.9c0 1-.7 1.7-1.6 1.7z" fill-rule="evenodd"/></g><g><path clip-rule="evenodd" d="m254.9 227.9c13 0 20.1 11.2 20.1 25.4 0 13.8-7.8 24.7-20.1 24.7-12.8 0-19.8-11.2-19.8-25.1.1-14.1 7.1-25 19.8-25zm.1 9.2c-6.5 0-6.9 8.8-6.9 14.3s-.1 17.3 6.8 17.3c6.8 0 7.1-9.5 7.1-15.3 0-3.8-.2-8.4-1.3-12-.9-3.1-2.9-4.3-5.7-4.3z" fill-rule="evenodd"/></g><g><path clip-rule="evenodd" d="m291.9 277h-8.8c-.9-.1-1.6-.8-1.6-1.6v-45.1c.1-.8.8-1.5 1.7-1.5h8.1c.8 0 1.4.6 1.6 1.3v6.9h.2c2.5-6.2 5.9-9.1 12-9.1 3.9 0 7.8 1.4 10.3 5.3 2.3 3.6 2.3 9.7 2.3 14v28.4c-.1.8-.8 1.4-1.7 1.4h-8.8c-.8-.1-1.5-.7-1.6-1.4v-24.5c0-4.9.6-12.1-5.5-12.1-2.1 0-4.1 1.4-5.1 3.6-1.2 2.8-1.4 5.5-1.4 8.5v24.3c0 .9-.7 1.6-1.7 1.6z" fill-rule="evenodd"/></g><g><path clip-rule="evenodd" d="m323.2 273.4c0-2.3 1.9-4.1 4.3-4.1s4.3 1.8 4.3 4.1-1.9 4.1-4.3 4.1-4.3-1.8-4.3-4.1z" fill-rule="evenodd"/></g><g><path d="m416.2 277c-.9 0-1.6-.7-1.6-1.6v-45.1c.1-.8.7-1.4 1.6-1.5h3.2c.9 0 1.6.6 1.7 1.5v6.6c2.3-5.2 6.6-9.3 12-9.3h.3.3c5.7 0 9.9 4.2 11.5 10.4 2.4-6.1 7-10.4 13-10.4h.3.4c4.3 0 8.4 2.8 10.5 6.9 2.1 4 2 9.3 2 13.8v27.1c0 .9-.7 1.6-1.6 1.6h-3.9c-.8 0-1.5-.6-1.6-1.4v-27.3c0-3.2.2-6.6-1.2-9.6-1.3-3-3.9-4.9-6.6-5-3.1.2-5.9 2.4-7.7 5.4-2.4 3.9-2.3 7.4-2.3 11.9v24.6c-.1.8-.8 1.3-1.6 1.4h-3.8c-.9 0-1.6-.7-1.6-1.6v-28.9c0-2.6-.2-5.8-1.4-8.2-1.4-2.7-4-4.5-6.6-4.6-2.8.2-5.6 2.3-7.2 4.7-2.1 3.1-2.5 7-2.5 11v26c0 .9-.7 1.6-1.6 1.6z"/></g><g><path d="m389.8 278c-12.5 0-18-12.7-18-25.4 0-13.4 6.6-24.9 19.1-24.9h.3.4c12.2 0 18.3 12.3 18.3 25 0 13.5-6.7 25.3-19.4 25.3h-.3zm.9-6.2c4.1-.1 7.3-2.7 9.2-6.9 1.7-3.8 2-8.2 2-12.3 0-4.6-.5-9.3-2.6-13.2-1.9-3.4-5.2-5.6-8.7-5.7-3.9.1-7.3 2.8-9.1 6.8-1.6 3.5-2 8.2-2 12 0 4.4.6 9.4 2.4 13.2 1.8 3.6 5.1 6 8.8 6.1z"/></g><g><path d="m350.8 271.6c5.6-.2 8.5-4.7 9.7-10.5.2-.7.8-1.3 1.6-1.3h3.7c.9 0 1.7.7 1.6 1.5-1.7 9.9-7.7 16.6-16.2 16.6h-.2-.3c-12.4 0-17.7-12.4-17.7-25 0-12.5 5.4-25.3 17.8-25.3h.3.3c8.6 0 14.7 6.6 16.1 16.5 0 .7-.7 1.4-1.5 1.5h-3.9c-.8-.1-1.3-.8-1.5-1.6-.9-5.5-4.1-9.9-9.4-10.1-8.4.3-10.8 10.6-10.8 18.6 0 7.6 2 18.8 10.4 19.1z"/></g><g><path clip-rule="evenodd" d="m174.9 255.5c0 3.4.1 6.3-1.6 9.3-1.4 2.5-3.6 4-6.1 4-3.4 0-5.3-2.6-5.3-6.4 0-7.5 6.7-8.8 13.1-8.8v1.9zm8.8 21.4c-.6.5-1.4.6-2.1.2-2.9-2.4-3.4-3.5-5-5.9-4.8 4.9-8.2 6.4-14.5 6.4-7.4 0-13.2-4.6-13.2-13.7 0-7.1 3.9-12 9.4-14.4 4.8-2.1 11.4-2.5 16.5-3v-1.1c0-2.1.2-4.6-1.1-6.4-1.1-1.6-3.1-2.3-4.9-2.3-3.4 0-6.3 1.7-7.1 5.3-.2.8-.7 1.6-1.5 1.6l-8.5-.9c-.7-.2-1.5-.7-1.3-1.8 2-10.3 11.3-13.4 19.6-13.4 4.3 0 9.9 1.1 13.2 4.4 4.3 4 3.9 9.3 3.9 15.1v13.7c0 4.1 1.7 5.9 3.3 8.1.6.8.7 1.8 0 2.3-1.7 1.5-4.9 4.2-6.7 5.8z" fill-rule="evenodd"/></g><g><path clip-rule="evenodd" d="m59.7 255.5c0 3.4.1 6.3-1.6 9.3-1.4 2.5-3.6 4-6.1 4-3.4 0-5.3-2.6-5.3-6.4 0-7.5 6.7-8.8 13.1-8.8v1.9zm8.9 21.4c-.6.5-1.4.6-2.1.2-2.9-2.4-3.4-3.5-5-5.9-4.8 4.9-8.2 6.4-14.5 6.4-7.4 0-13.1-4.6-13.1-13.7 0-7.1 3.9-12 9.4-14.4 4.8-2.1 11.4-2.5 16.5-3v-1.1c0-2.1.2-4.6-1.1-6.4-1.1-1.6-3.1-2.3-4.9-2.3-3.4 0-6.3 1.7-7.1 5.3-.2.8-.7 1.6-1.5 1.6l-8.5-.9c-.7-.2-1.5-.7-1.3-1.8 2-10.3 11.3-13.4 19.6-13.4 4.3 0 9.9 1.1 13.2 4.4 4.3 4 3.9 9.3 3.9 15.1v13.7c0 4.1 1.7 5.9 3.3 8.1.6.8.7 1.8 0 2.3-1.9 1.5-5.1 4.2-6.8 5.8z" fill-rule="evenodd"/></g></g></g></g></svg>