<?xml version="1.0" standalone="no"?>
<svg xmlns="http://www.w3.org/2000/svg" version="1.1" xmlns:xlink="http://www.w3.org/1999/xlink" width="512" height="512" x="0" y="0" viewBox="0 0 24 24" style="enable-background:new 0 0 512 512" xml:space="preserve" class=""><g><path d="M9.933 6.779a1.499 1.499 0 1 0-1.566-2.558C3.637 7.115 1.3 11.08 1.203 11.247a1.503 1.503 0 0 0 0 1.507c.098.167 2.435 4.131 7.164 7.026.245.15 1.286.648 2.062-.496.43-.634.21-1.63-.496-2.062-2.908-1.78-4.791-4.062-5.63-5.223a19.93 19.93 0 0 1 5.63-5.218ZM22.797 11.247c-.098-.167-2.435-4.131-7.164-7.026a1.5 1.5 0 0 0-1.566 2.558 19.945 19.945 0 0 1 5.63 5.218c-.84 1.161-2.723 3.443-5.63 5.223-.707.432-.926 1.428-.496 2.062.776 1.145 1.818.646 2.062.496 4.729-2.895 7.066-6.859 7.164-7.026.27-.466.27-1.041 0-1.507Z" fill="#ffffff" opacity="1" data-original="#000000"/></g></svg>