<svg id="Layer_1" enable-background="new 0 0 53 53" height="512" viewBox="0 0 53 53" width="512" xmlns="http://www.w3.org/2000/svg"><g id="_x34_3_1_"><path d="m45.3452148 44.5287781.6900024-11.6000366c.0899658-1.4799805-1.0900269-2.7299805-2.5700073-2.7299805h-33.9400024c-1.4800415 0-2.6600342 1.25-2.5700073 2.7299805l.6900024 11.6000366zm-18.8500366-10.0300293c1.5800171 0 2.8599854 1.2800293 2.8599854 2.8699951 0 1.5800171-1.2799683 2.8600464-2.8599854 2.8600464s-2.8599854-1.2800293-2.8599854-2.8600464c.0000001-1.5899658 1.2799683-2.8699951 2.8599854-2.8699951z"/><path d="m14.755188 20.1887512h2.8300171c.7924652 2.0503445 2.1571941 4.1460438 3.8899536 5.6000366h-3.4499512c-2.0300293 0-3.9299927.9099731-5.210022 2.4099731h27.3699951c-1.289978-1.5-3.1799927-2.4099731-5.210022-2.4099731h-3.4499512c1.7299805-1.460022 3.0799561-3.5300293 3.8899536-5.6000366h2.8300171c1.2900391 0 2.3400269-1.0499878 2.3400269-2.3300171v-2.1499634c0-.7900391-.4000244-1.4899902-1-1.9100342-.6400146-6.6699828-6.2800292-11.8199462-13.0900268-11.8199462-6.7999878 0-12.4400024 5.1499634-13.0800171 11.8199463-.5999756.4200439-1 1.1199951-1 1.9100342v2.1499634c0 1.2800292 1.0500489 2.330017 2.3400269 2.330017zm19.0100098-1.3099975c-1.1099854 3.3300171-3.8599854 6.9100342-7.2600098 6.9100342-2.2327271 0-4.171936-1.5289917-5.5606689-3.5149536.6804199.1073608 1.49823.204834 2.5106812.2649536.5199585.9799805 1.6900024 1.6599731 3.039978 1.6599731 1.8400269 0 3.3300171-1.2600098 3.3300171-2.8099976 0-1.5599976-1.4899902-2.8200073-3.3300171-2.8200073-1.4799805 0-2.7399902.8200073-3.1699829 1.960022-1.9986572-.1361084-3.1592407-.4238892-3.6782837-.5848999-.9776993-2.2587681-1.3749866-4.7033539-.6817017-7.0651245.789978-.25 2.7699585-.6499634 5.2599487.4299927.6700439.2900391 1.3600464.4100342 2.0600586.4100342 2.7199707 0 5.4799805-1.8400269 6.8399658-2.9100342 1.5 2.4700317 1.5599976 5.2999877.6400147 8.0700073zm-7.2700196-14.8999634c5.5599976 0 10.2200317 4.0499878 11.0300293 9.3899536h-1.3300171c-.8699951-4.8200073-4.9000244-8.3499756-9.6900024-8.3499756-4.25 0-7.8800049 2.7700195-9.2700195 6.7299805-.1900024.5200195-.3399658 1.0599976-.4400024 1.6199951h-1.3200073c.8100585-5.3399658 5.4600219-9.3899536 11.0200194-9.3899536z"/><path d="m46.3099976 46.5312195h-39.6300049c-.6199951 0-1.1799927.25-1.5900269.6600342-.3999634.3999634-.6499634.9599609-.6499634 1.5799561 0 1.2399902 1 2.25 2.2399902 2.25h39.6300049c1.2399902 0 2.25-1.0100098 2.25-2.25s-1.0100097-2.2399903-2.2499999-2.2399903z"/></g></svg>